<svg version="1.1" id="Layer_1" xmlns="http://www.w3.org/2000/svg" xmlns:xlink="http://www.w3.org/1999/xlink" x="0px" y="0px"
	 width="100%" viewBox="0 0 1024 1024"  xml:space="preserve">
<path fill="#fff" opacity="1.000000" stroke="none"
	d="
M148.751892,507.005524
	C150.302399,438.146790 169.125977,375.091980 206.247574,317.501892
	C220.944702,294.700928 237.701218,273.607391 257.059296,254.705032
	C282.215302,230.141251 310.251740,209.342056 341.475311,192.985840
	C372.159790,176.912018 404.103973,164.209473 438.181641,157.438950
	C470.284119,151.060837 502.598328,148.193298 535.423218,150.445145
	C580.640564,153.547150 623.700439,164.376694 664.718689,183.588989
	C719.286377,209.147629 765.132568,245.481247 801.844116,293.398621
	C836.618530,338.787506 859.332520,389.504608 869.939819,445.608246
	C875.838440,476.807007 878.036865,508.301666 875.191956,540.008484
	C869.786926,600.248657 851.745117,656.295654 818.836792,707.245605
	C806.340149,726.593323 791.906555,744.430664 775.969116,761.139709
	C739.030090,799.867065 695.566711,828.808777 646.025269,848.659790
	C617.654602,860.027771 588.342957,867.856140 557.869507,871.578064
	C535.462341,874.314819 513.051392,875.423401 490.604279,874.062622
	C459.930786,872.203125 429.934357,866.519897 400.742584,856.538879
	C355.146240,840.948853 313.547241,818.321960 276.831726,787.049377
	C231.376038,748.332214 196.876984,701.609497 174.688049,645.985046
	C161.774567,613.612793 153.915054,580.079407 150.505219,545.407532
	C149.263290,532.779297 148.680603,520.169067 148.751892,507.005524
M190.485443,442.877991
	C186.892700,459.816681 184.194809,476.918335 183.468445,494.206055
	C182.404282,519.533569 183.799576,544.749634 188.314011,569.773193
	C196.622208,615.825867 213.539673,658.314575 240.533432,696.622620
	C278.888794,751.054504 329.290070,790.396362 390.684479,815.850891
	C422.776550,829.156433 456.236115,837.190857 490.808685,839.465271
	C531.008240,842.109863 570.484314,837.289124 609.038086,825.060181
	C672.385986,804.966858 725.141968,769.123779 767.646851,718.321838
	C809.880371,667.844360 833.669006,609.293213 840.442078,544.026855
	C843.526550,514.304504 842.028870,484.541534 836.757324,454.998901
	C827.565674,403.486755 806.686646,357.213226 775.120972,315.645874
	C748.480042,280.563599 715.882935,252.219528 677.961670,229.889709
	C636.155090,205.272049 591.097717,190.418472 542.892944,185.489685
	C515.791626,182.718674 488.730225,183.956497 461.774445,188.261612
	C415.348785,195.676285 372.553070,212.401581 333.283539,238.062897
	C301.090790,259.099792 273.232544,284.862610 249.874374,315.546448
	C220.990250,353.489349 200.864395,395.417542 190.485443,442.877991
z"/>
<path fill="#fff" opacity="1.000000" stroke="none"
	d="
M361.238556,722.893311
	C364.651825,723.828979 367.770905,724.432678 370.747070,725.453247
	C377.309845,727.703735 381.205566,733.883972 380.231323,740.119751
	C379.314270,745.989136 373.723663,750.737061 367.176270,751.313354
	C360.280853,751.920410 353.935638,749.976440 347.947662,746.914124
	C330.878235,738.184570 321.999451,723.555908 318.720245,705.181396
	C314.195190,679.825989 317.394897,654.748840 322.091278,629.808167
	C325.880493,609.684998 331.225861,589.940308 337.710419,570.510925
	C338.286377,568.785217 339.040070,567.115845 337.782898,565.287231
	C329.411896,553.111694 323.418762,539.785278 318.780762,525.807861
	C318.689423,525.532532 318.359009,525.336426 317.932770,524.882507
	C315.401642,525.995483 314.069641,528.424805 312.465637,530.406311
	C295.268463,551.650635 278.171143,572.974854 265.319519,597.284668
	C263.291901,601.120056 261.534302,605.077332 260.339142,609.254211
	C256.478088,622.747742 261.745453,634.018250 274.620178,639.351135
	C280.314026,641.709656 286.249817,643.361938 292.484253,643.686401
	C295.325348,643.834229 298.098450,644.488953 300.648621,645.757751
	C306.027954,648.434143 308.880829,654.450317 307.466675,659.880310
	C305.851959,666.080383 299.763489,670.593018 292.583435,669.973267
	C277.258850,668.650391 262.785614,664.368225 250.087250,655.408752
	C234.732941,644.575195 230.115067,629.281555 233.391388,611.448547
	C236.852432,592.610046 247.505966,577.113464 257.970001,561.653381
	C279.721924,529.515991 306.109161,501.240570 332.333099,472.836975
	C332.559174,472.592072 332.777954,472.338593 333.021149,472.111633
	C338.459076,467.037323 339.724640,462.023743 337.095337,454.142181
	C323.752411,414.145752 314.754608,373.258057 316.747528,330.685974
	C317.728546,309.729065 324.180603,291.233429 341.525177,277.796143
	C352.500549,269.293274 365.149658,265.807373 378.637451,264.693848
	C418.432953,261.408356 455.219177,272.225372 490.178467,289.844666
	C526.566040,308.183777 560.688232,330.256927 592.483459,355.813202
	C595.475403,358.218048 598.327759,358.853790 602.131165,358.175903
	C626.005676,353.920929 650.047913,352.764130 674.236328,354.827393
	C680.418213,355.354706 680.718079,355.008270 680.773315,348.672302
	C680.877747,336.694183 681.569336,324.626343 676.760620,313.214844
	C672.789124,303.789948 666.018677,297.794556 655.671631,296.129974
	C652.897522,295.683655 650.097717,294.970947 647.505859,293.904053
	C641.673218,291.503113 638.390259,286.072235 639.059570,280.540741
	C639.783691,274.556641 644.205566,270.091187 650.287170,268.639893
	C657.759888,266.856537 664.519836,269.342743 671.136353,272.009277
	C692.177124,280.488983 701.972168,297.352020 705.274780,318.830902
	C706.026917,323.722260 706.519043,328.653595 707.179626,333.958710
	C713.133972,332.869080 718.552002,331.526642 724.228210,331.582428
	C742.858459,331.765594 757.517700,342.681885 762.412720,360.765381
	C763.443848,364.574615 765.107056,366.935303 768.757385,368.827789
	C788.403381,379.013062 795.884277,396.985657 789.766113,418.318420
	C785.387573,433.585327 777.174255,446.952087 768.604431,460.061188
	C746.079407,494.517242 718.691467,524.974426 690.231995,554.526245
	C689.653931,555.126465 689.139771,555.801270 688.503296,556.329895
	C684.004150,560.066528 683.389038,564.129700 685.366455,569.884277
	C694.844543,597.467407 701.733765,625.764404 705.025696,654.745117
	C707.240967,674.247070 708.578369,694.001648 702.346069,713.178650
	C694.050659,738.703857 675.778870,752.978210 649.863403,757.270935
	C615.880676,762.899963 583.105774,756.405029 551.557434,744.198425
	C512.823914,729.211792 477.413971,707.931580 443.779602,683.686768
	C438.649292,679.988647 433.739136,675.970947 428.875671,671.922668
	C426.369537,669.836609 423.889984,669.341431 420.615631,669.743042
	C397.792297,672.542297 374.940643,674.715515 351.940399,671.503784
	C342.213776,670.145508 342.233032,670.337769 342.237091,680.152588
	C342.241241,690.224365 343.417999,700.050110 347.460236,709.395874
	C350.165833,715.651367 354.406921,720.307861 361.238556,722.893311
M386.440247,534.128052
	C386.843903,536.250000 387.152771,538.395142 387.665009,540.490540
	C401.610931,597.539185 448.231140,637.104614 508.548492,638.426941
	C545.285339,639.232117 577.664307,627.473022 603.328247,600.236755
	C632.582886,569.189880 644.272095,532.464355 636.056091,490.461914
	C625.191833,434.920654 575.391479,390.180786 513.876404,389.823242
	C478.497559,389.617584 447.672699,400.567078 422.802338,425.946106
	C393.598114,455.747650 380.267334,491.299347 386.440247,534.128052
M459.127502,303.427521
	C435.032928,294.110992 410.370178,288.039246 384.233398,289.262573
	C365.222351,290.152374 350.530548,300.610687 345.077301,317.847626
	C341.595337,328.853668 342.205414,340.178558 342.325867,351.476288
	C342.358704,354.554474 344.178589,354.951904 346.630859,354.815521
	C353.437195,354.437103 360.242706,353.954865 367.055176,353.793304
	C385.386047,353.358521 403.574249,355.248260 421.653046,357.965576
	C425.528229,358.548004 428.122009,357.334137 430.709747,355.275879
	C447.046051,342.282196 464.725952,331.376343 482.975494,321.332886
	C484.473969,320.508209 486.396149,319.932312 486.832458,317.378143
	C478.474335,311.655975 469.158173,307.686768 459.127502,303.427521
M659.987488,672.569397
	C640.476440,674.175293 621.106812,672.306458 601.800171,669.850281
	C598.135620,669.384033 595.448547,669.963684 592.591919,672.059937
	C577.696899,682.989746 562.510742,693.483826 546.275330,702.377319
	C542.711365,704.329651 538.936768,706.012451 535.833862,708.952881
	C536.448181,709.500427 536.762085,709.913452 537.178223,710.132019
	C569.007080,726.846741 602.596313,736.536926 638.814453,733.453857
	C657.380371,731.873352 671.577637,722.919434 677.675720,704.080444
	C680.744934,694.598450 680.922791,684.805115 680.762878,674.967346
	C680.717651,672.187927 679.594116,671.026306 676.816589,671.262634
	C671.518799,671.713440 666.213257,672.072571 659.987488,672.569397
M740.140381,406.865051
	C726.312378,412.726440 713.178223,410.391479 700.567566,402.828369
	C699.414612,405.012726 698.634338,406.563599 698.255127,408.418030
	C694.921509,424.719330 690.737854,440.810791 685.416260,456.572510
	C683.990173,460.796356 684.419189,464.130859 686.840698,467.785614
	C693.216370,477.408295 698.056824,487.799042 701.451599,498.852356
	C701.871338,500.219208 702.091064,501.860321 704.026428,502.261108
	C706.456421,501.346832 707.821594,499.176056 709.445801,497.331055
	C721.012573,484.192505 731.518860,470.202667 741.602234,455.933716
	C750.240112,443.710175 758.608948,431.210175 763.681763,416.932861
	C766.897339,407.882843 765.679871,398.338928 757.083557,393.235016
	C752.499268,398.520264 747.746399,403.911926 740.140381,406.865051
M669.633545,422.131195
	C672.439697,410.530792 674.695679,398.821106 676.988037,387.109497
	C678.514038,379.313110 675.422241,378.574249 669.545288,378.456146
	C658.247925,378.229065 646.937012,378.206604 635.643677,378.524811
	C632.105225,378.624542 628.170227,378.421356 624.334900,381.171997
	C640.540405,395.742859 654.308289,411.750549 665.965210,429.459534
	C669.092834,427.653625 668.420654,424.885437 669.633545,422.131195
M390.919403,388.409882
	C392.930450,385.867584 396.273743,384.501831 397.497009,381.342163
	C396.349487,379.075928 394.348969,379.374268 392.597626,379.136505
	C383.996643,377.968933 375.338867,378.033173 366.690186,378.064148
	C361.366974,378.083191 356.038330,378.222870 350.723907,378.519257
	C346.786530,378.738892 344.670258,380.230682 345.815521,384.940491
	C347.380280,391.375671 348.027924,398.028748 349.440979,404.507233
	C351.256836,412.832336 352.888733,421.234558 356.309296,430.560150
	C366.343842,414.520355 377.436218,400.916351 390.919403,388.409882
M664.224548,602.042175
	C653.689148,618.444336 641.460693,633.455933 626.426392,647.102966
	C643.173157,649.496277 659.037598,648.857849 674.905945,647.610352
	C677.842346,647.379517 677.659363,645.298767 677.253174,643.186157
	C675.561157,634.387451 674.072571,625.543213 672.114014,616.804321
	C670.800659,610.944519 669.954102,604.839966 666.393250,599.333435
	C665.591553,600.263794 665.059814,600.880859 664.224548,602.042175
M361.769287,648.645264
	C372.608917,648.148315 383.641205,649.939514 395.859924,646.807800
	C380.090149,631.863586 367.359558,616.686096 356.512085,598.860474
	C355.763824,600.148499 355.434692,600.547485 355.280090,601.005310
	C350.539001,615.044128 347.784546,629.543152 345.387787,644.118713
	C344.966766,646.678955 346.427979,647.616272 348.895599,647.722778
	C352.877930,647.894653 356.849884,648.306519 361.769287,648.645264
M736.552429,362.040863
	C728.827942,353.713898 720.013550,353.138947 713.214294,360.518494
	C708.410522,365.732208 707.940796,373.435638 712.062683,379.402374
	C716.163330,385.338348 723.456421,387.613495 729.971436,384.989075
	C739.062744,381.326904 741.879395,372.306458 736.552429,362.040863
M507.499939,352.661743
	C518.905090,352.648285 530.310242,352.634796 541.715393,352.621338
	C541.776855,351.998810 541.838257,351.376312 541.899658,350.753784
	C533.345093,344.217377 524.086121,338.751129 514.682373,333.524414
	C512.913391,332.541199 511.101807,333.450745 509.487885,334.387054
	C500.861053,339.391785 492.232117,344.393372 483.644806,349.465302
	C482.793243,349.968262 481.319550,350.246368 481.886993,352.663971
	C489.982269,352.663971 498.241089,352.663971 507.499939,352.661743
M515.499878,675.219299
	C503.677368,675.219299 491.854858,675.219299 479.345154,675.219299
	C480.607361,678.481628 482.378479,679.267273 483.859070,680.167297
	C490.969910,684.489807 498.241821,688.552002 505.281860,692.984131
	C508.287140,694.876160 510.705566,694.504089 513.556030,692.835083
	C521.454834,688.209900 529.469788,683.783264 537.417908,679.241577
	C538.503662,678.621216 539.984497,678.193726 539.470703,675.221802
	C531.967896,675.221802 524.233826,675.221802 515.499878,675.219299
M353.635864,510.335327
	C352.542023,504.714783 350.885712,499.332642 347.697784,494.134216
	C340.593414,502.480194 340.381012,521.535095 346.995972,530.684387
	C349.235168,523.965454 351.378235,517.535156 353.635864,510.335327
M677.836487,504.694214
	C676.914978,502.517883 677.195984,499.650543 674.410400,498.505707
	C667.290039,506.097778 667.973145,521.321106 676.094177,531.090332
	C681.132141,522.709839 680.102905,514.127930 677.836487,504.694214
z"/>
<path fill="#fff" opacity="1.000000" stroke="none"
	d="
M401.413910,692.733765
	C413.468323,690.665894 423.849518,704.238831 417.585815,715.956055
	C414.410400,721.896240 407.197449,725.327393 400.725708,724.064819
	C394.675629,722.884521 389.638641,717.854858 388.726959,712.083496
	C387.440155,703.937622 390.276398,697.641174 396.796600,694.362549
	C398.123840,693.695190 399.585236,693.294739 401.413910,692.733765
z"/>
<path fill="#fff" opacity="1.000000" stroke="none"
	d="
M750.236328,552.264587
	C757.735107,554.856812 762.258179,561.052307 762.106262,568.104187
	C761.969238,574.467102 756.787781,580.562988 750.051880,582.285828
	C743.276672,584.018799 736.671387,581.559265 733.132874,575.985840
	C729.385864,570.083984 729.847717,562.138184 734.479492,557.006714
	C738.594727,552.447388 743.848877,551.013306 750.236328,552.264587
z"/>
<path fill="#fff" opacity="1.000000" stroke="none"
	d="
M499.090515,793.595886
	C495.429108,785.490234 496.119049,779.275757 500.984955,774.395508
	C505.796997,769.569336 512.778137,768.371277 518.886902,771.078735
	C525.378052,773.955566 527.760254,779.357666 527.920715,785.879150
	C528.067505,791.843140 523.617615,797.389526 517.583923,799.814331
	C511.272766,802.350525 505.897217,800.856323 501.201874,796.216919
	C500.497467,795.520996 499.924866,794.691650 499.090515,793.595886
z"/>
<path fill="#fff" opacity="1.000000" stroke="none"
	d="
M523.705200,250.604370
	C515.573364,257.809296 505.147583,257.553741 499.622620,250.313507
	C494.324951,243.371140 495.889862,232.410339 502.857727,227.654434
	C509.005554,223.458237 517.693665,224.026764 522.672607,228.951080
	C528.487488,234.702194 528.934448,242.223221 523.705200,250.604370
z"/>
<path fill="#fff" opacity="1.000000" stroke="none"
	d="
M280.173859,478.430054
	C270.136566,479.635864 262.804718,474.375000 261.763428,465.565582
	C260.650482,456.149628 266.536499,448.843689 275.972809,447.928406
	C284.473267,447.103912 292.038116,453.823517 292.727325,462.810974
	C293.258270,469.734497 288.549988,475.759033 280.173859,478.430054
z"/>
<path fill="#fff" opacity="1.000000" stroke="none"
	d="
M605.677856,328.145355
	C601.521790,321.590363 601.296204,315.211060 605.538208,309.152222
	C609.075073,304.100433 614.321228,302.081726 620.396423,303.123138
	C627.477417,304.336975 632.393005,309.705841 633.243652,316.605621
	C633.987427,322.638855 630.522827,329.005737 624.944458,331.856964
	C618.251831,335.277710 611.744995,334.112671 605.677856,328.145355
z"/>
<path fill="#fff" opacity="1.000000" stroke="none"
	d="
M782.678345,530.227173
	C772.600464,530.075806 766.059570,524.361633 766.260010,516.292847
	C766.500305,506.619629 772.740051,500.379944 781.873230,500.679626
	C788.474304,500.896271 793.963196,505.751373 795.344910,512.595703
	C796.667725,519.148804 793.411499,525.791443 787.331787,528.737793
	C786.000122,529.383179 784.515320,529.712646 782.678345,530.227173
z"/>
<path fill="#fff" opacity="1.000000" stroke="none"
	d="
M237.992828,500.376709
	C246.544540,498.825073 251.185272,500.596405 254.182709,506.247253
	C256.970123,511.502228 256.430908,517.398132 252.561462,521.502808
	C248.384476,525.933655 243.179962,527.032593 237.544083,525.084839
	C232.713531,523.415344 230.113113,519.703613 229.688614,514.585571
	C229.153336,508.131958 231.416580,503.217682 237.992828,500.376709
z"/>
<path fill="#fff" opacity="1.000000" stroke="none"
	d="
M759.620361,618.927368
	C771.071594,618.219299 777.196899,623.933533 775.548950,633.299438
	C774.383606,639.922668 769.869751,643.875549 763.206787,644.107727
	C757.529785,644.305542 752.157471,640.510010 750.731628,635.294067
	C748.944580,628.756897 751.487610,622.787659 757.362244,619.774414
	C757.950195,619.472900 758.591797,619.276123 759.620361,618.927368
z"/>
<path fill="#fff" opacity="1.000000" stroke="none"
	d="
M269.274445,403.047180
	C268.671692,409.812225 265.331177,413.856873 259.152832,415.576569
	C254.102432,416.982269 249.917633,415.553406 246.635010,411.637177
	C243.055527,407.366791 242.847931,402.531433 244.974884,397.562653
	C247.029587,392.762695 251.371521,390.257141 257.054382,390.377838
	C261.940430,390.481567 266.431427,393.638428 268.145020,398.297211
	C268.657745,399.691132 268.899536,401.184692 269.274445,403.047180
z"/>
<path fill="#fff" opacity="1.000000" stroke="none"
	d="
M438.755920,794.283020
	C430.853668,793.982971 427.341095,791.416321 425.480713,784.912170
	C424.034027,779.854431 425.997681,774.414185 430.380981,771.335632
	C435.059601,768.049744 440.583099,768.004211 445.259613,771.351135
	C449.653931,774.496216 451.152527,779.045593 450.123016,784.082092
	C448.945526,789.842712 444.945801,793.143372 438.755920,794.283020
z"/>
<path fill="#fff" opacity="1.000000" stroke="none"
	d="
M484.001648,751.689270
	C481.613220,759.991760 475.808807,764.260437 469.111542,762.989624
	C462.414551,761.718872 458.488831,756.783691 458.686035,749.883484
	C458.866150,743.581543 463.398285,738.623840 469.763397,737.765869
	C476.095276,736.912476 481.722778,740.828003 483.480133,747.389282
	C483.818359,748.651978 483.877594,749.989502 484.001648,751.689270
z"/>
<path fill="#fff" opacity="1.000000" stroke="none"
	d="
M571.911499,248.370819
	C569.858582,235.337570 579.543335,230.754425 586.610840,232.139343
	C592.869080,233.365677 596.472839,238.272598 596.536499,245.205933
	C596.587097,250.723892 592.443298,255.927429 587.033203,257.139526
	C580.421387,258.620880 575.168396,255.696503 571.911499,248.370819
z"/>
<path fill="#fff" opacity="1.000000" stroke="none"
	d="
M543.858643,267.772888
	C549.171692,264.062988 554.342896,263.716400 559.492493,267.086853
	C563.608765,269.781036 565.340149,273.942322 564.843445,278.646149
	C564.225647,284.496979 560.758789,288.288910 554.955872,289.729645
	C549.968567,290.967865 545.753601,289.535675 542.470703,285.674011
	C538.998291,281.589447 538.654053,275.697144 541.455444,270.769318
	C542.020203,269.775909 542.855774,268.936523 543.858643,267.772888
z"/>
<path fill="#fff" opacity="1.000000" stroke="none"
	d="
M562.090210,436.818451
	C585.959656,452.849152 600.598511,474.757172 603.955688,502.891388
	C608.020508,536.955261 595.500427,564.963806 568.755432,586.261658
	C551.353210,600.119629 531.180847,606.699890 508.859924,606.210510
	C465.800629,605.266541 428.695740,573.577271 420.537323,531.669312
	C413.683075,496.460297 429.276337,457.590057 461.886902,436.843567
	C480.977844,424.698151 501.710541,420.949524 523.973999,423.346802
	C537.692871,424.824036 550.120728,429.524384 562.090210,436.818451
M574.377686,486.144043
	C559.581177,458.294067 536.970581,444.033112 504.922394,446.387054
	C499.792816,446.763824 494.582153,447.399933 490.053955,450.141541
	C487.538025,451.664856 485.509949,453.932556 486.836121,457.192749
	C488.089935,460.275085 490.356995,461.870819 493.995270,460.903534
	C496.882751,460.135834 499.866760,459.729370 502.810028,459.173615
	C529.147278,454.200562 557.408875,471.279297 565.388306,496.815338
	C569.621460,510.362640 569.491455,523.646973 563.941040,536.793457
	C562.320068,540.632812 563.319397,543.980286 566.970093,545.663818
	C570.508362,547.295410 572.886108,544.626221 574.717468,541.923523
	C575.542297,540.706238 575.994263,539.219849 576.522217,537.820374
	C583.029785,520.571045 582.040771,503.586609 574.377686,486.144043
z"/>
</svg>
